# xmcd
#
# Track frame offsets:
#  150
#  4844
#  17510
#  42257
#  59561
#  75346
#  91606
#  107999
#  121826
#  137878
#  167937
#  191854
#  210996
#  235201
#  264246
#
# Disc length: 3909 seconds
#
# Revision: 0
# Processed by: cddbd v1.5.1PL0 Copyright (c) Steve Scherf et al.
# Submitted via: Collectorz.com Music Collector 6.9
#
DISCID=bf0f430f
DTITLE=tom russell - Live Off Broadway - May 8th 1992 - Disc 1
DYEAR=1992
DGENRE=
TTITLE0=Introduction
TTITLE1=Home Before Dark
TTITLE2=Winnipeg
TTITLE3=The Evangeline Hotel
TTITLE4=Outbound Plane
TTITLE5=Beyond The Blues
TTITLE6=Black Pearl
TTITLE7=The Heart Of The Working Man
TTITLE8=Veteran's Day
TTITLE9=Angel Of Lyon
TTITLE10=Navajo Rug
TTITLE11=Jack Johnson
TTITLE12=Lord Of The Trains
TTITLE13=Waterloo
TTITLE14=Gallo Del Cielo
EXTD=
EXTT0=
EXTT1=
EXTT2=
EXTT3=
EXTT4=
EXTT5=
EXTT6=
EXTT7=
EXTT8=
EXTT9=
EXTT10=
EXTT11=
EXTT12=
EXTT13=
EXTT14=
PLAYORDER=
